<svg width="512" height="448" viewBox="0 0 512 448" fill="none" xmlns="http://www.w3.org/2000/svg">
<path d="M149.333 24V104C149.333 117.255 138.588 128 125.333 128H24C10.745 128 0 117.255 0 104V24C0 10.745 10.745 0 24 0H125.333C138.588 0 149.333 10.745 149.333 24ZM330.667 264V184C330.667 170.745 319.922 160 306.667 160H205.333C192.078 160 181.333 170.745 181.333 184V264C181.333 277.255 192.078 288 205.333 288H306.666C319.922 288 330.667 277.255 330.667 264V264ZM362.667 24V104C362.667 117.255 373.412 128 386.667 128H488C501.255 128 512 117.255 512 104V24C512 10.745 501.255 0 488 0H386.667C373.412 0 362.667 10.745 362.667 24V24ZM330.667 104V24C330.667 10.745 319.922 0 306.667 0H205.333C192.078 0 181.333 10.745 181.333 24V104C181.333 117.255 192.078 128 205.333 128H306.666C319.922 128 330.667 117.255 330.667 104V104ZM125.333 160H24C10.745 160 0 170.745 0 184V264C0 277.255 10.745 288 24 288H125.333C138.588 288 149.333 277.255 149.333 264V184C149.333 170.745 138.588 160 125.333 160V160ZM0 344V424C0 437.255 10.745 448 24 448H125.333C138.588 448 149.333 437.255 149.333 424V344C149.333 330.745 138.588 320 125.333 320H24C10.745 320 0 330.745 0 344ZM386.667 288H488C501.255 288 512 277.255 512 264V184C512 170.745 501.255 160 488 160H386.667C373.412 160 362.667 170.745 362.667 184V264C362.667 277.255 373.412 288 386.667 288ZM386.667 448H488C501.255 448 512 437.255 512 424V344C512 330.745 501.255 320 488 320H386.667C373.412 320 362.667 330.745 362.667 344V424C362.667 437.255 373.412 448 386.667 448ZM181.333 344V424C181.333 437.255 192.078 448 205.333 448H306.666C319.921 448 330.666 437.255 330.666 424V344C330.666 330.745 319.921 320 306.666 320H205.333C192.078 320 181.333 330.745 181.333 344Z" fill="white"/>
</svg>
